<svg xmlns="http://www.w3.org/2000/svg" viewBox="0 0 363.33 347.88">
  <path d="M579.07 41.891c-.56.008-1.137.058-1.688.156-.01.002-.02-.002-.03 0l-55.626 9.5a10.27 10.27 0 0 0-7.812 6.375v.031l-25.812 66.187-251.91 6.282a10.26 10.26 0 0 0-7.5 3.562 10.32 10.32 0 0 0-2.438 7.969l13.906 115.03c.574 4.826 4.561 8.653 9.407 9.031l179.59 14.281 35.594 28a3 3 0 0 0 .125.094c.038.026.086.036.125.062.044.03.08.066.125.094 6.495 4.849 8.105 11.454 7.187 15.125-.523 2.092-1.321 3.629-3.219 4.813s-5.174 2.04-10.78 1.718h-.064a11 11 0 0 0-.562 0c-.03.001-.064 0-.094 0l-214.19.625h-.031c-5.629-.036-10.366 4.686-10.344 10.312.022 5.628 4.778 10.331 10.406 10.25h.031l15.656-.03c-5.817 3.707-9.719 10.194-9.719 17.561 0 11.46 9.386 20.844 20.844 20.844s20.844-9.385 20.844-20.844c0-7.407-3.911-13.958-9.78-17.656l176.38-.5c-6.355 3.583-10.689 10.384-10.689 18.156 0 11.46 9.385 20.844 20.844 20.844s20.844-9.385 20.844-20.844c0-9.951-7.07-18.34-16.438-20.375 8.858-3.133 15.662-9.594 19.875-19.469a2.5 2.5 0 0 0 .156-.375c3.23-12.916-2.498-26.959-14.312-36.094l-.094-.094c-.029-.022-.034-.071-.062-.093a2.5 2.5 0 0 0-.343-.344l-25.22-19.781 78.657-201.47 49.906-8.5c.01-.002.02.002.03 0 5.243-.843 9.077-5.73 8.626-11.031-.453-5.312-5.082-9.479-10.406-9.406zm-98.563 98.125-14.5 37.188h-18.91v-36.35l33.406-.844zm-40.625 1.031v36.156h-34.906v-35.28zm-42.125 1.031v35.125h-34.906v-34.25zm-42.125 1.063v34.062h-34.906v-33.188l34.906-.875zm-42.125 1.062v33h-34.906v-32.125zm-42.125 1.032v31.969h-25.594l-3.781-31.22zm-24.719 39.156h24.719v32.656h-20.781zm31.938 0h34.906v32.656h-34.906zm42.125 0h34.906v32.656h-34.906zm42.125 0h34.906v32.656h-34.906zm42.125 0h34.906v32.656h-34.906zm42.125 0h16.125l-12.75 32.656h-3.375zm-195.62 39.844h19.906v23.438l-17.25-1.375zm27.125 0h34.906v26.78l-34.906-2.78zm42.125 0h34.906v30.125l-34.906-2.75zm42.125 0h34.906v33.5l-34.906-2.782zm42.125 0h34.906v19.875l-6.625 16.969a7.8 7.8 0 0 0-2.75-.75l-25.531-2.032zm42.125 0h.531l-.531 1.468zm-176.84 132.44c6.811 0 12.25 5.439 12.25 12.25s-5.439 12.219-12.25 12.219c-6.81 0-12.25-5.408-12.25-12.22 0-6.81 5.44-12.25 12.25-12.25m197.59 0c6.81 0 12.25 5.439 12.25 12.25s-5.44 12.219-12.25 12.219c-6.811 0-12.25-5.408-12.25-12.22 0-6.81 5.439-12.25 12.25-12.25m-197.59 5.812a6.626 6.626 0 0 0-6.656 6.656c0 3.7 2.956 6.625 6.656 6.625s6.656-2.924 6.656-6.625-2.956-6.656-6.656-6.656m197.59 0a6.626 6.626 0 0 0-6.656 6.656c0 3.7 2.956 6.625 6.656 6.625s6.656-2.924 6.656-6.625-2.956-6.656-6.656-6.656" fill="#fff" transform="translate(-226.18 -41.886)"/>
</svg>
